<?xml version="1.0" encoding="UTF-8" standalone="no"?>
<!-- Created with Inkscape (http://www.inkscape.org/) -->

<svg
   width="0.29862282in"
   height="0.1690942in"
   viewBox="0 0 7.5850196 4.2949928"
   version="1.1"
   id="svg12"
   xmlns:inkscape="http://www.inkscape.org/namespaces/inkscape"
   xmlns:sodipodi="http://sodipodi.sourceforge.net/DTD/sodipodi-0.dtd"
   xmlns="http://www.w3.org/2000/svg"
   xmlns:svg="http://www.w3.org/2000/svg">
  <sodipodi:namedview
     id="namedview14"
     pagecolor="#ffffff"
     bordercolor="#000000"
     borderopacity="0.25"
     inkscape:showpageshadow="2"
     inkscape:pageopacity="0.0"
     inkscape:pagecheckerboard="0"
     inkscape:deskcolor="#d1d1d1"
     inkscape:document-units="mm"
     showgrid="false"
     showguides="true">
    <sodipodi:guide
       position="-8.9888532,0.53513209"
       orientation="1,0"
       id="guide667"
       inkscape:locked="false" />
  </sodipodi:namedview>
  <defs
     id="defs9" />
  <g
     inkscape:label="Capa 1"
     inkscape:groupmode="layer"
     id="layer1"
     transform="translate(-0.1532862,-0.18391157)">
    <g
       id="g845"
       transform="translate(-0.24648577,-0.36024844)"
       inkscape:export-filename="LMH LETRAS.svg"
       inkscape:export-xdpi="96"
       inkscape:export-ydpi="96">
      <rect
         style="fill:#000000;stroke-width:0.358344"
         id="rect118"
         width="0.66611862"
         height="4.1816306"
         x="0.41283387"
         y="0.54283428"
         transform="matrix(0.99999775,0.00212152,-0.00289509,0.99999581,0,0)"
         ry="0.21336168" />
      <rect
         style="fill:#000000;stroke-width:0.236557"
         id="rect118-6"
         width="0.66611743"
         height="1.8222982"
         x="-4.7289882"
         y="0.40530327"
         transform="matrix(9.2451492e-4,-0.99999957,0.99997793,0.00664337,0,0)"
         ry="0.092980139" />
      <rect
         style="fill:#000000;stroke-width:0.358344"
         id="rect118-2"
         width="0.66611862"
         height="4.1816306"
         x="-3.4432638"
         y="0.60868603"
         transform="matrix(-0.99999775,0.00212152,0.00289509,0.99999581,0,0)"
         ry="0.21336168" />
      <rect
         style="fill:#000000;stroke-width:0.358344"
         id="rect118-0"
         width="0.66611862"
         height="4.1816306"
         x="7.3211641"
         y="0.64104939"
         transform="matrix(0.99999775,0.00212152,-0.00289509,0.99999581,0,0)"
         ry="0.21336168" />
      <rect
         style="fill:#000000;stroke-width:0.256001"
         id="rect118-0-5"
         width="0.66611749"
         height="2.1341655"
         x="-2.9867065"
         y="5.7616596"
         transform="matrix(0.00108275,-0.99999941,0.99998391,0.00567257,0,0)"
         ry="0.10889272" />
      <rect
         style="fill:#000000;stroke-width:0.358344"
         id="rect118-7"
         width="0.66611862"
         height="4.1816306"
         x="4.4246769"
         y="0.56191987"
         transform="matrix(0.99999775,0.00212152,-0.00289509,0.99999581,0,0)"
         ry="0.21336168" />
      <rect
         style="fill:#000000;stroke-width:0.276167"
         id="rect118-7-8-1"
         width="0.59676892"
         height="2.3353984"
         x="-4.9450426"
         y="-1.3794929"
         transform="matrix(-0.90711375,-0.42088555,-0.38301281,0.92374303,0,0)"
         ry="0.29637763" />
      <rect
         style="fill:#000000;stroke-width:0.280624"
         id="rect118-7-8-1-0"
         width="0.60132462"
         height="2.393127"
         x="2.34835"
         y="1.9349947"
         transform="matrix(0.89959994,-0.43671495,0.37551888,0.92681475,0,0)"
         ry="0.30370376" />
      <rect
         style="fill:#000000;stroke-width:0.358344"
         id="rect118-3"
         width="0.66611862"
         height="4.1816306"
         x="5.7667027"
         y="0.63143069"
         transform="matrix(0.99999775,0.00212152,-0.00289509,0.99999581,0,0)"
         ry="0.21336168" />
    </g>
  </g>
</svg>
